<svg xmlns="http://www.w3.org/2000/svg" viewBox="0 0 18 18">
  <path fill="currentColor" d="M166.824,133.786a.75.75,0,0,1-.75.75H160.6l4.49,4.49a.75.75,0,1,1-1.061,1.061l-4.49-4.49v5.477a.75.75,0,0,1-1.5,0v-7.288a.753.753,0,0,1,.75-.75h7.288A.75.75,0,0,1,166.824,133.786Zm7.118,14.4V140.9a.75.75,0,0,0-1.5,0v5.478l-4.491-4.491a.75.75,0,0,0-1.061,1.06l4.492,4.491H165.9a.75.75,0,0,0,0,1.5h7.289a.713.713,0,0,0,.146-.029.805.805,0,0,0,.138-.028.746.746,0,0,0,.408-.408.705.705,0,0,0,.039-.192A.7.7,0,0,0,173.942,148.191Z" transform="translate(-157.036 -132.036)"/>
</svg>
