<svg xmlns="http://www.w3.org/2000/svg" viewBox="0 0 18 18">
  <path fill="currentColor" d="M293.374,146.05h-1.559v-4.735a6.293,6.293,0,0,0-3.214-5.729,2.756,2.756,0,0,0-5.51.119,6.1,6.1,0,0,0-2.914,5.46v4.885h-1.551a.75.75,0,0,0,0,1.5h5.493a1.768,1.768,0,0,0,3.466,0h5.789a.75.75,0,0,0,0-1.5Zm-7.522-11.6a1.24,1.24,0,0,1,1.03.575,5.714,5.714,0,0,0-.886-.075,6.129,6.129,0,0,0-1.2.117A1.243,1.243,0,0,1,285.852,134.45Zm-4.175,11.6v-4.885c0-2.776,1.776-4.715,4.319-4.715,2.836,0,4.319,2.447,4.319,4.865v4.735Z" transform="translate(-276.876 -131.95)"/>
</svg>
