<svg xmlns="http://www.w3.org/2000/svg" viewBox="0 0 18 18">
  <path fill="currentColor" d="M316.5,108.75h-2.25V107.7a.75.75,0,1,0-1.5,0v1.05h-7.5V107.7a.75.75,0,1,0-1.5,0v1.05H301.5a.75.75,0,0,0-.75.75v13a.75.75,0,0,0,.75.75h15a.75.75,0,0,0,.75-.75v-13A.75.75,0,0,0,316.5,108.75Zm-12.75,1.5v.591a.75.75,0,0,0,1.5,0v-.591h7.5v.591a.75.75,0,0,0,1.5,0v-.591h1.5v2.5h-13.5v-2.5Zm-1.5,11.5v-7.5h13.5v7.5Zm1.844-6.454h1.994v1.993h-1.994Zm3.906,0h1.993v1.993H308Zm4.053,0h1.994v1.993h-1.994Zm-7.959,3.315h1.994V120.6h-1.994Zm3.906,0h1.993V120.6H308Zm4.053,0h1.994V120.6h-1.994Z" transform="translate(-299.75 -105.95)"/>
</svg>
