<svg xmlns="http://www.w3.org/2000/svg" viewBox="0 0 18 18">
  <path fill="currentColor" d="M273.31,147.6H258.731a.75.75,0,0,1-.75-.75v-9.719a.75.75,0,0,1,.75-.75h3.424l.765-1.528a.75.75,0,0,1,.671-.416h4.859a.75.75,0,0,1,.671.416l.765,1.528h3.424a.75.75,0,0,1,.75.75v9.719A.75.75,0,0,1,273.31,147.6Zm-13.829-1.5H272.56v-8.219h-3.138a.749.749,0,0,1-.671-.415l-.765-1.529h-3.931l-.765,1.529a.749.749,0,0,1-.671.415h-3.138Zm6.484-.485a4.059,4.059,0,1,1,1.557-.309A4.047,4.047,0,0,1,265.965,145.613Zm0-6.635a2.572,2.572,0,0,0-2.568,2.568,2.579,2.579,0,0,0,.751,1.814,2.564,2.564,0,0,0,2.8.558,2.564,2.564,0,0,0,1.584-2.372,2.563,2.563,0,0,0-.752-1.816,2.581,2.581,0,0,0-1.815-.752Zm-.539,1.165a1.5,1.5,0,0,0-.812,1.96,1.5,1.5,0,0,0,.812.811,1.5,1.5,0,0,0,1.634-2.446,1.495,1.495,0,0,0-1.634-.325Zm5.651-1.643a.777.777,0,1,0,.777.777A.777.777,0,0,0,271.077,138.5Z" transform="translate(-256.981 -132.435)"/>
</svg>
