<svg xmlns="http://www.w3.org/2000/svg" viewBox="0 0 18 18">
  <path fill="currentColor" d="M125.917,148.834a7.919,7.919,0,0,1-7.315-10.947,7.974,7.974,0,0,1,1.717-2.568,7.918,7.918,0,0,1,8.629-1.716,7.914,7.914,0,0,1,3.552,2.917,7.791,7.791,0,0,1,.731,1.367,7.91,7.91,0,0,1,0,6.06,7.774,7.774,0,0,1-.732,1.368,7.912,7.912,0,0,1-6.582,3.519Zm0-14.334a6.425,6.425,0,0,0-4.538,1.88,6.3,6.3,0,0,0-.8.972,6.385,6.385,0,0,0-.594,1.109,6.41,6.41,0,0,0,.593,6.02,6.32,6.32,0,0,0,.8.973,6.39,6.39,0,0,0,2.082,1.391,6.364,6.364,0,0,0,1.2.366,6.418,6.418,0,0,0,5.79-10.831,6.39,6.39,0,0,0-2.082-1.391,6.391,6.391,0,0,0-2.456-.489Zm-1.638,9.414a.747.747,0,0,0,.532-.228l4.676-4.81a.75.75,0,1,0-1.075-1.045l-4.147,4.266-1.635-1.631a.75.75,0,0,0-1.06,1.062l2.174,2.167a.751.751,0,0,0,.529.219Z" transform="translate(-117 -132)"/>
</svg>
