<svg xmlns="http://www.w3.org/2000/svg" viewBox="0 0 18 18">
  <path fill="currentColor" d="M85.917,148.834A7.919,7.919,0,0,1,78.6,137.887a7.974,7.974,0,0,1,1.717-2.568,7.918,7.918,0,0,1,8.629-1.716A7.914,7.914,0,0,1,92.5,136.52a7.791,7.791,0,0,1,.731,1.367,7.91,7.91,0,0,1,0,6.06,7.774,7.774,0,0,1-.732,1.368,7.912,7.912,0,0,1-6.582,3.519Zm0-14.334a6.415,6.415,0,0,0-6.294,5.165,6.421,6.421,0,0,0,.365,3.708,6.443,6.443,0,0,0,1.391,2.081,6.39,6.39,0,0,0,2.082,1.391,6.364,6.364,0,0,0,1.2.366,6.424,6.424,0,0,0,5.79-1.757,6.3,6.3,0,0,0,.8-.972,6.385,6.385,0,0,0,.594-1.109,6.41,6.41,0,0,0,.364-3.708,6.417,6.417,0,0,0-1.755-3.285,6.39,6.39,0,0,0-2.082-1.391,6.391,6.391,0,0,0-2.456-.489Zm4.25,8.744a.75.75,0,0,0-.305-1.016l-3.112-1.676v-3.77a.75.75,0,0,0-1.5,0V141a.748.748,0,0,0,.395.66l3.506,1.889a.749.749,0,0,0,1.016-.3Z" transform="translate(-77 -132)"/>
</svg>
