<svg xmlns="http://www.w3.org/2000/svg" viewBox="0 0 18 18">
  <path fill="currentColor" d="M193.959,135.561a.748.748,0,0,0-.22-.53l-1.84-1.839a.749.749,0,0,0-1.06,0l-1.818,1.819-.291-.291a.772.772,0,0,0-1.06,0l-7.5,7.5a.753.753,0,0,0-.17.274l0,0-1.958,5.4a.749.749,0,0,0,.705,1.006.728.728,0,0,0,.251-.043l5.434-1.928c.021-.008.041-.013.061-.022l.013,0v0a.75.75,0,0,0,.211-.141l7.5-7.5a.75.75,0,0,0,0-1.061l-.29-.29,1.818-1.818A.749.749,0,0,0,193.959,135.561ZM181,144.114l1.8,1.8-2.817,1Zm3.178,1.057-2.42-2.42.934-.934,2.42,2.42Zm1.994-1.994-2.42-2.42,4.446-4.447.29.29v0l1.839,1.838.29.29Zm4.686-6.327-.778-.779,1.287-1.288.779.778Z" transform="translate(-176.99 -131.972)"/>
</svg>
