<svg xmlns="http://www.w3.org/2000/svg" viewBox="0 0 18 18">
  <path fill="currentColor" d="M246,149a8.044,8.044,0,0,1-1.561-.154,8,8,0,0,1-4.1-2.188,8,8,0,0,1,2.593-13.049,8.144,8.144,0,0,1,1.5-.455,8,8,0,0,1,3.121,0A8,8,0,0,1,246,149Zm0-14.5a6.507,6.507,0,0,0-2.488.495,6.414,6.414,0,0,0-1.124.6,6.448,6.448,0,0,0-1.793,1.793,6.5,6.5,0,0,0-.97,2.343,6.5,6.5,0,0,0,.37,3.756,6.414,6.414,0,0,0,.6,1.124,6.448,6.448,0,0,0,1.793,1.793,6.5,6.5,0,0,0,2.343.97,6.5,6.5,0,0,0,3.756-.37,6.414,6.414,0,0,0,1.124-.6,6.612,6.612,0,0,0,.986-.808,6.694,6.694,0,0,0,.807-.985,6.5,6.5,0,0,0,.97-2.343,6.5,6.5,0,0,0-.37-3.756,6.414,6.414,0,0,0-.6-1.124,6.448,6.448,0,0,0-1.793-1.793,6.5,6.5,0,0,0-2.343-.97A6.529,6.529,0,0,0,246,134.5Zm-.555,9.633a1,1,0,1,0,.707-.293A.964.964,0,0,0,245.445,144.133Zm1.509-2c0-.382,0-.647,0-.832.1-.067.218-.137.332-.206a2.7,2.7,0,0,0,1.667-2.228,2.912,2.912,0,0,0-2.924-2.82,2.83,2.83,0,0,0-2.779,2.871.75.75,0,1,0,1.5,0,1.313,1.313,0,0,1,1.279-1.371,1.393,1.393,0,0,1,1.424,1.32c0,.352-.355.591-.94.943a4.284,4.284,0,0,0-.84.6.757.757,0,0,0-.219.547c0,.106,0,1.175,0,1.175a.75.75,0,0,0,.749.751h0A.749.749,0,0,0,246.954,142.136Z" transform="translate(-237 -132)"/>
</svg>
