<svg xmlns="http://www.w3.org/2000/svg" viewBox="0 0 18 18">
  <path fill="currentColor" d="M231.407,144.25h-8.2a.749.749,0,0,1-.729-.573l-2.219-9.14H218.7a.75.75,0,0,1,0-1.5h2.153a.749.749,0,0,1,.729.573l.57,2.349h11.077a.751.751,0,0,1,.725.944l-1.821,6.791A.75.75,0,0,1,231.407,144.25Zm-7.606-1.5h7.031l1.419-5.291h-9.735Zm5.991,2.241a2,2,0,1,1-2.005,2A2.006,2.006,0,0,1,229.792,144.991Zm0,1.5a.5.5,0,1,0,.5.5.505.505,0,0,0-.5-.5m-5.226-1.5a2,2,0,1,1-2,2A2.005,2.005,0,0,1,224.566,144.991Zm0,1.5a.5.5,0,1,0,.506.5.5.5,0,0,0-.506-.5" transform="translate(-216.949 -132.037)"/>
</svg>
