<svg xmlns="http://www.w3.org/2000/svg" viewBox="0 0 18 18">
  <path fill="currentColor" d="M149.029,107A7.971,7.971,0,1,0,157,114.971,7.97,7.97,0,0,0,149.029,107Zm0,1.5a6.464,6.464,0,0,1,5.725,9.478,16,16,0,0,0-2.165-1.09l-.611-.272a3.6,3.6,0,0,0,.193-.566,2.246,2.246,0,0,0,.459-1.623,1.984,1.984,0,0,0-.156-.566,3.432,3.432,0,0,0-.647-2.588,3.653,3.653,0,0,0-5.543,0,3.44,3.44,0,0,0-.645,2.607,2.047,2.047,0,0,0-.138.52,2.293,2.293,0,0,0,.433,1.625,3.5,3.5,0,0,0,.183.552,15.528,15.528,0,0,0-2.652,1.679,6.458,6.458,0,0,1,5.564-9.757Zm0,12.942a6.447,6.447,0,0,1-4.652-1.984c.933-.653,3.457-1.954,3.457-1.954v-.96a2.168,2.168,0,0,1-.492-1.154c-.728-.791-.121-1.177-.121-1.177-.645-2.653,1.664-2.713,1.835-2.713s2.48.059,1.835,2.713c0,0,.648.394-.122,1.177a2.146,2.146,0,0,1-.493,1.154v.96s2.807,1.349,3.6,1.735A6.449,6.449,0,0,1,149.029,121.442Z" transform="translate(-140.059 -106)"/>
</svg>
