<svg xmlns="http://www.w3.org/2000/svg" viewBox="0 0 18 18">
  <path fill="currentColor" d="M134.584,95.916a8,8,0,1,0,8,8A8,8,0,0,0,134.584,95.916Zm-.05,12.631a.849.849,0,1,1,.85-.85A.851.851,0,0,1,134.534,108.547Zm1.123-4.494a6.214,6.214,0,0,0-.559.362v1.145a.5.5,0,0,1-1,0v-1.372a.5.5,0,0,1,.145-.353,4.61,4.61,0,0,1,.9-.639c.758-.457,1.256-.8,1.256-1.395a1.961,1.961,0,0,0-1.972-1.884H134.4a1.881,1.881,0,0,0-1.842,1.929.5.5,0,0,1-.486.513.471.471,0,0,1-.514-.486,2.883,2.883,0,0,1,2.805-2.955h.036a2.963,2.963,0,0,1,3,2.864C137.4,103,136.391,103.61,135.657,104.053Z" transform="translate(-125.584 -94.916)"/>
</svg>
