<svg xmlns="http://www.w3.org/2000/svg" viewBox="0 0 18 18">
  <path fill="currentColor" d="M-5324.876-1112.577a1.556,1.556,0,0,1,1.556-1.557,1.557,1.557,0,0,1,1.556,1.557,1.556,1.556,0,0,1-1.556,1.556A1.555,1.555,0,0,1-5324.876-1112.577Zm-4.835,0a1.558,1.558,0,0,1,1.557-1.557,1.557,1.557,0,0,1,1.556,1.557,1.556,1.556,0,0,1-1.556,1.556A1.557,1.557,0,0,1-5329.711-1112.577Zm-.559-2.423-2.422-11h-1.808a.5.5,0,0,1-.5-.5.5.5,0,0,1,.5-.5h2.611l.662,3,.042,0h12.233l-2.1,9Z" transform="translate(5336 1128)"/>
</svg>
