<svg xmlns="http://www.w3.org/2000/svg" viewBox="0 0 18 18">
  <path fill="currentColor" d="M119.374,139.3h-1.809v-5.159a6.235,6.235,0,0,0-3.213-5.738,2.51,2.51,0,0,0-2.5-2.359H111.8a2.5,2.5,0,0,0-2.456,2.455h.041a6.033,6.033,0,0,0-2.954,5.485V139.3h-1.8a.5.5,0,0,0,0,1h5.468a1.76,1.76,0,0,0,3.516,0h5.764a.5.5,0,0,0,0-1Zm-7.556-12.255a1.537,1.537,0,0,1,1.433.955,5.318,5.318,0,0,0-1.255-.152,5.626,5.626,0,0,0-1.571.224A1.5,1.5,0,0,1,111.818,127.045Zm4.747,12.255h-9.138v-5.314c0-3.025,1.879-5.138,4.569-5.138,2.648,0,4.569,2.225,4.569,5.293Z" transform="translate(-103 -125)"/>
</svg>
