<svg xmlns="http://www.w3.org/2000/svg" viewBox="0 0 18 18">
  <path fill="currentColor" d="M-5374.5-1231a.5.5,0,0,1-.5-.5v-10a.5.5,0,0,1,.5-.5h3.686l.865-1.724a.5.5,0,0,1,.449-.276h4.994a.5.5,0,0,1,.451.276l.864,1.724h3.688a.5.5,0,0,1,.5.5v10a.5.5,0,0,1-.5.5Zm3.667-5.652a3.837,3.837,0,0,0,3.833,3.835,3.839,3.839,0,0,0,3.835-3.835,3.839,3.839,0,0,0-3.835-3.835A3.838,3.838,0,0,0-5370.832-1236.65Zm8.551-2.721a.781.781,0,0,0,.777.785.781.781,0,0,0,.784-.778.779.779,0,0,0-.777-.782h-.005A.779.779,0,0,0-5362.281-1239.371Zm-7.547,2.721a2.834,2.834,0,0,1,2.83-2.83,2.835,2.835,0,0,1,2.83,2.83,2.835,2.835,0,0,1-2.83,2.831A2.834,2.834,0,0,1-5369.829-1236.65Zm1.158,0a1.674,1.674,0,0,0,1.671,1.673,1.674,1.674,0,0,0,1.671-1.673,1.673,1.673,0,0,0-1.671-1.671A1.673,1.673,0,0,0-5368.671-1236.651Z" transform="translate(5376 1246.528)"/>
</svg>
