<svg xmlns="http://www.w3.org/2000/svg" viewBox="0 0 18 18">
  <path fill="currentColor" d="M-5375-1114.055v-10.953h4.168l1-1.991h5.59l1,1.991h4.173v10.953Zm1-1h13.929v-8.954h-3.789l-1-1.991h-4.356l-1,1.991H-5374Zm3.147-4.627a3.822,3.822,0,0,1,3.817-3.819,3.823,3.823,0,0,1,3.819,3.819,3.823,3.823,0,0,1-3.819,3.818A3.821,3.821,0,0,1-5370.852-1119.682Zm1,0a2.822,2.822,0,0,0,2.818,2.818,2.821,2.821,0,0,0,2.819-2.818,2.821,2.821,0,0,0-2.819-2.818A2.822,2.822,0,0,0-5369.853-1119.682Zm1.153,0a1.665,1.665,0,0,1,1.665-1.663,1.665,1.665,0,0,1,1.663,1.663,1.665,1.665,0,0,1-1.663,1.665A1.666,1.666,0,0,1-5368.7-1119.684Zm1,0a.665.665,0,0,0,.665.664.664.664,0,0,0,.664-.664.665.665,0,0,0-.664-.664A.666.666,0,0,0-5367.7-1119.684Zm6.138-1.925a.777.777,0,0,1-.774-.782.776.776,0,0,1,.78-.773.778.778,0,0,1,.773.781.777.777,0,0,1-.776.774Z" transform="translate(5376 1129.5)"/>
</svg>
