<svg xmlns="http://www.w3.org/2000/svg" viewBox="0 0 18 18">
  <path fill="currentColor" d="M-5235-1119.083a7.926,7.926,0,0,1,7.917-7.917,7.926,7.926,0,0,1,7.917,7.917,7.927,7.927,0,0,1-7.917,7.917A7.926,7.926,0,0,1-5235-1119.083Zm1,0a6.924,6.924,0,0,0,6.917,6.916,6.924,6.924,0,0,0,6.917-6.916,6.926,6.926,0,0,0-6.917-6.917A6.925,6.925,0,0,0-5234-1119.083Zm2.747.434a.5.5,0,0,1,0-.707.5.5,0,0,1,.707,0l1.815,1.81,4.323-4.449a.5.5,0,0,1,.707-.009.5.5,0,0,1,.011.707l-5.031,5.174Z" transform="translate(5236 1128)"/>
</svg>
