<svg xmlns="http://www.w3.org/2000/svg" viewBox="0 0 18 18">
  <path fill="currentColor" d="M111.83,122.75a4.168,4.168,0,0,1-2.971-1.246l-5.916-5.915A.75.75,0,0,1,104,114.528l5.915,5.915a2.622,2.622,0,0,0,2.025.8,2.748,2.748,0,0,0,1.8-.759,2.668,2.668,0,0,0,.847-1.992,3.411,3.411,0,0,0-1.115-2.269l-6.883-6.885a1.578,1.578,0,0,0-2.261-.116,1.729,1.729,0,0,0,.179,2.44l6.822,6.8c.489.423.609.286.705.177.184-.213.086-.487-.29-.813l-5.781-5.777a.75.75,0,0,1,1.061-1.061l5.742,5.741a1.973,1.973,0,0,1,.4,2.892c-.281.323-1.317,1.273-2.858-.06l-6.8-6.778a3.217,3.217,0,0,1-.334-4.525,3.035,3.035,0,0,1,4.438-.01l6.916,6.915a4.878,4.878,0,0,1,1.553,3.284,4.242,4.242,0,0,1-4.084,4.3C111.947,122.748,111.888,122.75,111.83,122.75Z" transform="translate(-100.407 -106.294)"/>
</svg>
