<svg xmlns="http://www.w3.org/2000/svg" viewBox="0 0 18 18">
  <path fill="currentColor" d="M9.976,15.8a4.27,4.27,0,0,1-2.563-.849L.8,8.448a.5.5,0,0,1,.7-.713L8.062,14.2a3.285,3.285,0,0,0,4.417-.546,3.249,3.249,0,0,0-.124-4.468L4.67,1.543A2.214,2.214,0,1,0,1.78,4.9l7.495,7.474a1.124,1.124,0,0,0,1.566-.133l.012-.014a1.131,1.131,0,0,0-.116-1.585l-.009-.008-.022-.02L4.346,4.337a.5.5,0,0,1,.7-.712L11.409,9.9a.353.353,0,0,1,.093.085,2.125,2.125,0,0,1,.1,2.9l-.018.021a2.125,2.125,0,0,1-2.993.2L1.128,5.654a3.22,3.22,0,0,1-.352-4.54,3.236,3.236,0,0,1,4.578-.3l7.707,7.658A4.318,4.318,0,0,1,9.976,15.8Z" transform="translate(1.618 0.994)"/>
</svg>
