<svg xmlns="http://www.w3.org/2000/svg" viewBox="0 0 18 18">
  <path fill="currentColor" d="M106.864,34.814a3.75,3.75,0,0,1-2.477-.886L97.8,27.445a.5.5,0,0,1,.7-.713l6.566,6.46a2.86,2.86,0,0,0,2.237.594,3.466,3.466,0,0,0,2.181-1.141,3.511,3.511,0,0,0,.826-2.316,2.8,2.8,0,0,0-.925-2.126l-7.712-7.662a2.215,2.215,0,1,0-2.864,3.379l7.467,7.449a1.131,1.131,0,0,0,.794.246,1.128,1.128,0,0,0,.653-1.979l-6.381-6.3a.5.5,0,0,1,.7-.711L108.4,28.9a2.084,2.084,0,0,1,.708,1.433,2.128,2.128,0,0,1-3.512,1.766l-7.467-7.449a3.213,3.213,0,1,1,4.223-4.844l7.712,7.662a3.761,3.761,0,0,1,1.246,2.845,4.53,4.53,0,0,1-1.068,2.983,4.536,4.536,0,0,1-3.375,1.516Z" transform="translate(-94.992 -17.993)"/>
</svg>
