<svg xmlns="http://www.w3.org/2000/svg" viewBox="0 0 18 18">
  <path fill="currentColor" d="M-5195-1119.083a7.926,7.926,0,0,1,7.918-7.917,7.925,7.925,0,0,1,7.917,7.917,7.927,7.927,0,0,1-7.917,7.918A7.927,7.927,0,0,1-5195-1119.083Zm1,0a6.925,6.925,0,0,0,6.918,6.918,6.925,6.925,0,0,0,6.917-6.918,6.925,6.925,0,0,0-6.917-6.917A6.925,6.925,0,0,0-5194-1119.083Zm10.27,2.413-3.769-2.033v-4.515a.5.5,0,0,1,.5-.5.5.5,0,0,1,.5.5v3.919l3.244,1.747a.5.5,0,0,1,.2.678.5.5,0,0,1-.441.262A.5.5,0,0,1-5183.73-1116.67Z" transform="translate(5196 1128)"/>
</svg>
