<svg xmlns="http://www.w3.org/2000/svg" viewBox="0 0 18 18">
  <path fill="currentColor" d="M-5394.9-1082.816a7.924,7.924,0,0,1,6.547-9.079,7.912,7.912,0,0,1,1.275-.1,7.879,7.879,0,0,1,7.805,6.65,7.926,7.926,0,0,1-6.547,9.081,7.936,7.936,0,0,1-1.276.1A7.881,7.881,0,0,1-5394.9-1082.816Zm6.708-8.094a6.927,6.927,0,0,0-5.723,7.934,6.888,6.888,0,0,0,6.819,5.81,7.039,7.039,0,0,0,1.116-.089,6.925,6.925,0,0,0,5.72-7.934,6.883,6.883,0,0,0-6.818-5.812A7,7,0,0,0-5388.189-1090.91Zm.024,10.056a1,1,0,0,1,1-1,1,1,0,0,1,1,1,1,1,0,0,1-1,1A1,1,0,0,1-5388.165-1080.854Zm.5-2.812v-4a.5.5,0,0,1,.5-.5.5.5,0,0,1,.5.5v4a.5.5,0,0,1-.5.5A.5.5,0,0,1-5387.665-1083.667Z" transform="translate(5396.165 1093.166)"/>
</svg>
