<svg xmlns="http://www.w3.org/2000/svg" viewBox="0 0 18 18">
  <path fill="currentColor" d="M189.626,48.273l-1.881-1.882a.514.514,0,0,0-.707,0l-1.327,1.326-.486-.486a.5.5,0,0,0-.707,0l-8.4,8.4a.489.489,0,0,0-.114.184l-.005,0-2,5.531a.5.5,0,0,0,.47.67.481.481,0,0,0,.167-.029l5.541-1.966a.388.388,0,0,0,.072-.026l.024-.008,0-.006a.5.5,0,0,0,.119-.079l8.4-8.4a.5.5,0,0,0,0-.707l-.487-.487,1.326-1.326A.5.5,0,0,0,189.626,48.273Zm-12.953,8.618,2.442,2.442L175.3,60.688Zm3.361,1.947-2.855-2.855,1.334-1.333,2.854,2.855Zm2.04-2.04-2.854-2.855,5.652-5.652.486.486,1.882,1.883h0l.486.485Zm5.52-7.2-1.176-1.175.973-.973,1.175,1.175Z" transform="translate(-172.967 -45.25)"/>
</svg>
