<svg xmlns="http://www.w3.org/2000/svg" viewBox="0 0 18 18">
  <path fill="currentColor" d="M-5355-1119a8.01,8.01,0,0,1,8-8,8.009,8.009,0,0,1,8,8,8.009,8.009,0,0,1-8,8A8.01,8.01,0,0,1-5355-1119Zm1,0a7.01,7.01,0,0,0,7,7,7.008,7.008,0,0,0,7-7,7.008,7.008,0,0,0-7-7A7.01,7.01,0,0,0-5354-1119Zm6.2,3.294a.845.845,0,0,1,.844-.847.845.845,0,0,1,.845.847.845.845,0,0,1-.845.845A.845.845,0,0,1-5347.8-1115.706Zm.3-1.9v-1.128a.5.5,0,0,1,.146-.353,3.857,3.857,0,0,1,.754-.535c.6-.359.988-.628.988-1.068a1.58,1.58,0,0,0-1.547-1.455,1.456,1.456,0,0,0-1.423,1.488.5.5,0,0,1-.488.512.494.494,0,0,1-.512-.488,2.457,2.457,0,0,1,2.394-2.512,2.563,2.563,0,0,1,2.575,2.437,2.343,2.343,0,0,1-1.472,1.943c-.152.091-.3.18-.415.263v.9a.5.5,0,0,1-.5.5A.5.5,0,0,1-5347.506-1117.6Z" transform="translate(5356 1128)"/>
</svg>
