<svg xmlns="http://www.w3.org/2000/svg" viewBox="0 0 18 18">
  <path fill="currentColor" d="M47.5,128a8,8,0,1,0,8,8A8.009,8.009,0,0,0,47.5,128ZM53,140.315a7.845,7.845,0,0,0-2.219-1.08c-.631-.256-1.742-.756-1.742-.756v-1.185a2.644,2.644,0,0,0,.607-1.427c.966-.335.5-1.406.379-1.553s-.227.1-.227.1c.8-3.28-2.058-3.353-2.268-3.353s-3.065.075-2.268,3.353c0,0-.113-.246-.228-.1s-.587,1.218.378,1.553a2.662,2.662,0,0,0,.609,1.427v1.185s-1.113.5-1.743.756a7.747,7.747,0,0,0-2.27,1.1A7,7,0,1,1,53,140.315Z" transform="translate(-38.44 -127.001)"/>
</svg>
