<svg xmlns="http://www.w3.org/2000/svg" viewBox="0 0 18 18">
  <path fill="currentColor" d="M87.029,25A7.971,7.971,0,1,0,95,32.971,7.97,7.97,0,0,0,87.029,25Zm0,1a6.967,6.967,0,0,1,5.766,10.883,7.631,7.631,0,0,0-2.324-1.112c-.421-.17-1.059-.452-1.43-.616v-.689a3.126,3.126,0,0,0,.561-1.259,1.246,1.246,0,0,0,.585-.737A1.851,1.851,0,0,0,89.922,31l-.027-.032a3,3,0,0,0-.5-2.356,3.167,3.167,0,0,0-4.725,0,2.994,2.994,0,0,0-.5,2.355l-.026.03a1.874,1.874,0,0,0-.269,1.464,1.252,1.252,0,0,0,.586.742,3.165,3.165,0,0,0,.562,1.258v.689c-.367.163-.993.44-1.378.6a7.8,7.8,0,0,0-2.376,1.136A6.966,6.966,0,0,1,87.029,26Zm0,13.942a6.946,6.946,0,0,1-5.135-2.274,7.012,7.012,0,0,1,2.074-.97c.636-.258,1.76-.763,1.76-.763a.5.5,0,0,0,.3-.456V34.293a.5.5,0,0,0-.117-.321,2.164,2.164,0,0,1-.495-1.16.5.5,0,0,0-.333-.418c-.194-.067-.224-.155-.238-.193a.6.6,0,0,1-.006-.294.469.469,0,0,0,.1-.023.5.5,0,0,0,.321-.59,2.368,2.368,0,0,1,.207-2.059,2.175,2.175,0,0,1,3.151,0,2.365,2.365,0,0,1,.206,2.059.5.5,0,0,0,.323.592.6.6,0,0,0,.091.022.593.593,0,0,1,0,.294c-.013.038-.044.126-.238.193a.5.5,0,0,0-.333.419,2.151,2.151,0,0,1-.494,1.159.5.5,0,0,0-.117.321v1.186a.5.5,0,0,0,.295.456s1.122.5,1.813.782a6.806,6.806,0,0,1,2.022.945A6.947,6.947,0,0,1,87.029,39.942Z" transform="translate(-78 -24)"/>
</svg>
