<svg xmlns="http://www.w3.org/2000/svg" viewBox="0 0 18 18">
  <path fill="currentColor" d="M144.029,19A7.971,7.971,0,1,0,152,26.971,7.97,7.97,0,0,0,144.029,19Zm0,1a6.966,6.966,0,0,1,5.766,10.882,7.607,7.607,0,0,0-2.326-1.111c-.421-.168-1.058-.45-1.428-.615v-.689a3.145,3.145,0,0,0,.561-1.26,1.242,1.242,0,0,0,.584-.736A1.848,1.848,0,0,0,146.92,25l-.026-.03a2.994,2.994,0,0,0-.5-2.357,3.165,3.165,0,0,0-4.723,0,3,3,0,0,0-.5,2.356.336.336,0,0,0-.031.035,1.861,1.861,0,0,0-.26,1.469,1.246,1.246,0,0,0,.583.731,3.161,3.161,0,0,0,.561,1.259v.689c-.367.164-.992.441-1.378.6a7.8,7.8,0,0,0-2.378,1.134A6.966,6.966,0,0,1,144.029,20Zm0,13.942a6.946,6.946,0,0,1-5.137-2.275,7.012,7.012,0,0,1,2.073-.968c.638-.255,1.764-.764,1.764-.764a.5.5,0,0,0,.294-.456V28.293a.5.5,0,0,0-.118-.322,2.158,2.158,0,0,1-.494-1.159.5.5,0,0,0-.333-.418c-.193-.067-.224-.154-.237-.192a.6.6,0,0,1-.006-.3.477.477,0,0,0,.094-.023.5.5,0,0,0,.321-.59,2.374,2.374,0,0,1,.206-2.06,2.176,2.176,0,0,1,3.151,0,2.369,2.369,0,0,1,.207,2.06.5.5,0,0,0,.322.591.586.586,0,0,0,.092.022.593.593,0,0,1,0,.294c-.013.038-.044.126-.238.193a.5.5,0,0,0-.333.418,2.157,2.157,0,0,1-.493,1.159.494.494,0,0,0-.118.322v1.186a.5.5,0,0,0,.293.456s1.126.509,1.815.781a6.822,6.822,0,0,1,2.022.946A6.949,6.949,0,0,1,144.029,33.942Z" transform="translate(-135.059 -18)"/>
</svg>
