<svg xmlns="http://www.w3.org/2000/svg" viewBox="0 0 18 18">
  <path fill="currentColor" d="M160.853,52.147a.5.5,0,0,1-.707.707L155,47.707v6.37a.5.5,0,0,1-1,0V46.5a.487.487,0,0,1,.039-.191.493.493,0,0,1,.27-.27A.487.487,0,0,1,154.5,46h7.577a.5.5,0,0,1,0,1h-6.37Zm9.125,9.33V53.9a.5.5,0,1,0-1,0v6.371l-5.147-5.147a.5.5,0,0,0-.707.707l5.146,5.146H161.9a.5.5,0,0,0,0,1h7.578l.014,0a.484.484,0,0,0,.176-.035.5.5,0,0,0,.272-.272.485.485,0,0,0,.024-.119A.559.559,0,0,0,169.978,61.477Z" transform="translate(-153 -45)"/>
</svg>
