<svg xmlns="http://www.w3.org/2000/svg" xmlns:xlink="http://www.w3.org/1999/xlink" width="18" height="18" viewBox="0 0 18 18">
  <path fill="currentColor" d="M311.5,21H309V19.5a.5.5,0,0,0-1,0V21h-8V19.5a.5.5,0,0,0-1,0V21h-2.5a.5.5,0,0,0-.5.5v13a.5.5,0,0,0,.5.5h15a.5.5,0,0,0,.5-.5v-13A.5.5,0,0,0,311.5,21ZM311,34H297V26h14Zm-14-9V22h2v1.5a.5.5,0,0,0,1,0V22h8v1.5a.5.5,0,0,0,1,0V22h2v3Zm1.82,2.2h1.5v1.5h-1.5Zm4.68,0H305v1.5h-1.5Zm4.32,0h1.5v1.5h-1.5Zm-9,4h1.5v1.5h-1.5Zm4.68,0H305v1.5h-1.5Zm4.32,0h1.5v1.5h-1.5Z" transform="translate(-295 -18)"/>
</svg>
