<svg xmlns="http://www.w3.org/2000/svg" viewBox="0 0 18 18">
  <path fill="currentColor" d="M121.917,61.834a7.923,7.923,0,0,1-7.315-4.887,8,8,0,0,1-.45-1.486A7.915,7.915,0,0,1,124.946,46.6a7.926,7.926,0,0,1,4.285,4.284,8,8,0,0,1,.451,1.486,7.906,7.906,0,0,1-.451,4.573,7.94,7.94,0,0,1-1.716,2.569,7.916,7.916,0,0,1-5.6,2.319Zm0-14.834a6.925,6.925,0,0,0-1.349.133,6.865,6.865,0,0,0-2.494,1.033,6.934,6.934,0,0,0-1.909,1.908,6.91,6.91,0,0,0-1.032,2.493,6.913,6.913,0,0,0,0,2.7,7.014,7.014,0,0,0,.393,1.3,7.1,7.1,0,0,0,.639,1.195,6.956,6.956,0,0,0,1.909,1.909,7.075,7.075,0,0,0,1.2.639,6.928,6.928,0,0,0,5.294,0,7.075,7.075,0,0,0,1.2-.639A6.917,6.917,0,0,0,121.917,47Zm-1.285,9.513,4.676-4.811a.5.5,0,1,0-.717-.7l-4.323,4.448-1.815-1.81a.5.5,0,0,0-.706.708l2.173,2.167a.5.5,0,0,0,.353.146A.639.639,0,0,0,120.632,56.513Z" transform="translate(-113 -45)"/>
</svg>
