<svg xmlns="http://www.w3.org/2000/svg" viewBox="0 0 18 18">
  <path fill="currentColor" d="M81.917,61.834A7.923,7.923,0,0,1,74.6,56.947a8,8,0,0,1-.45-1.486A7.915,7.915,0,0,1,84.946,46.6a7.926,7.926,0,0,1,4.285,4.284,7.908,7.908,0,0,1,0,6.059,7.94,7.94,0,0,1-1.716,2.569,7.916,7.916,0,0,1-5.6,2.319Zm0-14.834a6.938,6.938,0,0,0-2.647.526,7.01,7.01,0,0,0-1.2.64,6.913,6.913,0,0,0-1.908,1.908A6.915,6.915,0,0,0,75,53.917a6.925,6.925,0,0,0,.133,1.349,6.865,6.865,0,0,0,1.033,2.494,6.934,6.934,0,0,0,1.908,1.909,7.075,7.075,0,0,0,1.2.639,6.933,6.933,0,0,0,5.3,0,7.1,7.1,0,0,0,1.195-.639A6.917,6.917,0,0,0,81.917,47Zm4.03,9.126a.5.5,0,0,0-.2-.678L82.5,53.7V49.782a.5.5,0,0,0-1,0V54a.5.5,0,0,0,.263.44l3.507,1.889a.49.49,0,0,0,.236.06A.5.5,0,0,0,85.947,56.126Z" transform="translate(-73 -45)"/>
</svg>
