<svg xmlns="http://www.w3.org/2000/svg" viewBox="0 0 18 18">
    <path fill="currentColor" d="M7.637,15.828a7.915,7.915,0,0,1-5.514-2.516A7.892,7.892,0,0,1,.5,10.686a7.919,7.919,0,0,1-.5-3.05A7.9,7.9,0,0,1,.716,4.629a7.8,7.8,0,0,1,.778-1.341A7.976,7.976,0,0,1,2.52,2.123,7.969,7.969,0,0,1,5.148.5,7.911,7.911,0,0,1,8.2,0,8.062,8.062,0,0,1,9.736.211a7.919,7.919,0,0,1,5.6,4.938,7.948,7.948,0,0,1,.5,3.048,7.965,7.965,0,0,1-.207,1.537,7.918,7.918,0,0,1-7.7,6.1C7.827,15.834,7.731,15.832,7.637,15.828ZM6.809,1.088A7.04,7.04,0,0,0,5.5,1.436,6.912,6.912,0,0,0,3.2,2.856,6.93,6.93,0,0,0,1.185,6.328a6.693,6.693,0,0,0-.18,1.343,6.876,6.876,0,0,0,.084,1.354,6.919,6.919,0,0,0,6.583,5.8l.25,0a6.935,6.935,0,0,0,4.711-1.855,6.945,6.945,0,0,0,2.017-3.473,7.043,7.043,0,0,0,.18-1.345A6.938,6.938,0,0,0,13.8,4.28,7.045,7.045,0,0,0,12.978,3.2a6.86,6.86,0,0,0-1.017-.9A6.939,6.939,0,0,0,9.506,1.184,7.044,7.044,0,0,0,8.162,1l-.25,0A6.978,6.978,0,0,0,6.809,1.088Zm.318,10.766a1,1,0,1,1,.707.293A.966.966,0,0,1,7.127,11.854Zm.207-3.521v-4a.5.5,0,1,1,1,0v4a.5.5,0,1,1-1,0Z" transform="translate(1 1)" stroke="rgba(0,0,0,0)" stroke-miterlimit="10" stroke-width="1"/>
</svg>
