<svg xmlns="http://www.w3.org/2000/svg" viewBox="0 0 18 18">
  <path fill="currentColor" d="M242,62a8.009,8.009,0,0,1-5.657-2.343,7.988,7.988,0,0,1-1.734-2.6,8,8,0,0,1,0-6.123,8.006,8.006,0,0,1,1.734-2.6,8,8,0,0,1,11.314,0,7.978,7.978,0,0,1,1.734,2.6A8.016,8.016,0,0,1,250,54a8.006,8.006,0,0,1-.609,3.062,8.016,8.016,0,0,1-1.734,2.6A8.008,8.008,0,0,1,242,62Zm0-15a7,7,0,0,0-7,7,6.928,6.928,0,0,0,.135,1.365,7,7,0,0,0,1.045,2.525,7,7,0,0,0,1.93,1.93,6.967,6.967,0,0,0,1.211.647,7,7,0,0,0,9.544-5.1,7.01,7.01,0,0,0-.4-4.045A7,7,0,0,0,242,47Zm-.554,9.7a.845.845,0,1,0,.6-.248A.815.815,0,0,0,241.446,56.7Zm1.047-1.3c0-.445,0-.721,0-.894.116-.085.263-.173.416-.265.621-.374,1.473-.886,1.473-1.924a2.541,2.541,0,0,0-2.554-2.456,2.464,2.464,0,0,0-2.417,2.5.5.5,0,1,0,1,0,1.446,1.446,0,0,1,1.417-1.5,1.528,1.528,0,0,1,1.554,1.456c0,.44-.392.708-.988,1.067a3.836,3.836,0,0,0-.755.537c-.118.118-.178.2-.146.362,0,.068,0,1.116,0,1.116a.5.5,0,0,0,.5.5h0A.5.5,0,0,0,242.493,55.394Z" transform="translate(-233 -45.001)"/>
</svg>
