<svg xmlns="http://www.w3.org/2000/svg" viewBox="0 0 18 18">
  <path fill="currentColor" d="M227.549,58h-8.416a.5.5,0,0,1-.489-.393L216.308,47H214.5a.5.5,0,0,1,0-1h2.21a.5.5,0,0,1,.488.393L217.773,49l.042,0h11.6a.5.5,0,0,1,.487.614l-1.87,8A.5.5,0,0,1,227.549,58Zm-8.015-1h7.618l1.637-7h-10.8Zm6.972,1.887a1.556,1.556,0,1,1-1.557,1.556A1.556,1.556,0,0,1,226.506,58.887Zm0,1a.556.556,0,1,0,.556.556.557.557,0,0,0-.556-.556m-6.387-1a1.556,1.556,0,1,1-1.557,1.556A1.557,1.557,0,0,1,220.119,58.887Zm0,1a.556.556,0,1,0,.557.556.557.557,0,0,0-.557-.556" transform="translate(-213 -45)"/>
</svg>
