<svg xmlns="http://www.w3.org/2000/svg" viewBox="0 0 18 18">
  <path fill="currentColor" d="M101.917,61.834A7.923,7.923,0,0,1,94.6,56.947a8,8,0,0,1-.45-1.486A7.915,7.915,0,0,1,104.946,46.6a7.926,7.926,0,0,1,4.285,4.284,8,8,0,0,1,.451,1.486,7.907,7.907,0,0,1-.451,4.573,7.94,7.94,0,0,1-1.716,2.569,7.916,7.916,0,0,1-5.6,2.319Zm0-14.834a6.938,6.938,0,0,0-2.647.526,7.01,7.01,0,0,0-1.2.64,6.913,6.913,0,0,0-1.908,1.908A6.915,6.915,0,0,0,95,53.917a6.925,6.925,0,0,0,.133,1.349,6.865,6.865,0,0,0,1.033,2.494,6.934,6.934,0,0,0,1.908,1.909,6.911,6.911,0,0,0,2.493,1.032,6.93,6.93,0,0,0,4-.393,7.075,7.075,0,0,0,1.2-.639A6.917,6.917,0,0,0,101.917,47Zm.858,7,2.245-2.246a.5.5,0,1,0-.707-.707l-2.245,2.246-2.244-2.246a.5.5,0,0,0-.707.707L101.362,54l-2.245,2.245a.5.5,0,0,0,.707.707l2.244-2.245,2.245,2.245a.5.5,0,1,0,.707-.707Z" transform="translate(-93 -45)"/>
</svg>
